{
  "accessors": [
    {
      "bufferView": 1,
      "componentType": 5126,
      "count": 23040,
      "max": [
        0.98875999450683594,
        0.98855000734329224,
        0.99083000421524048
      ],
      "min": [
        -0.98875999450683594,
        -0.98855000734329224,
        -0.99083000421524048
      ],
      "type": "VEC3"
    },
    {
      "bufferView": 1,
      "byteOffset": 276480,
      "componentType": 5126,
      "count": 23040,
      "max": [
        0.99999833106994629,
        0.99970215559005737,
        0.99999475479125977
      ],
      "min": [
        -0.99999833106994629,
        -0.99970215559005737,
        -0.99999475479125977
      ],
      "type": "VEC3"
    },
    {
      "bufferView": 0,
      "componentType": 5125,
      "count": 34560,
      "max": [
        23039
      ],
      "min": [
        0
      ],
      "type": "SCALAR"
    },
    {
      "bufferView": 1,
      "byteOffset": 552960,
      "componentType": 5126,
      "count": 3923,
      "max": [
        0.98527002334594727,
        0.98506999015808105,
        0.98733997344970703
      ],
      "min": [
        -0.98527002334594727,
        -0.98506999015808105,
        -0.98733997344970703
      ],
      "type": "VEC3"
    },
    {
      "bufferView": 1,
      "byteOffset": 600036,
      "componentType": 5126,
      "count": 3923,
      "max": [
        0.99997490644454956,
        0.99998879432678223,
        1
      ],
      "min": [
        -0.99997490644454956,
        -0.99998879432678223,
        -1
      ],
      "type": "VEC3"
    },
    {
      "bufferView": 0,
      "byteOffset": 138240,
      "componentType": 5125,
      "count": 5748,
      "max": [
        3922
      ],
      "min": [
        0
      ],
      "type": "SCALAR"
    }
  ],
  "asset": {
    "extras": {
      "author": "sirkitree (https://sketchfab.com/sirkitree)",
      "license": "CC-BY-4.0 (http://creativecommons.org/licenses/by/4.0/)",
      "source": "https://sketchfab.com/models/2d4f7dde4bda4987960f73a8a711ace7",
      "title": "Hex-sphere"
    },
    "generator": "Sketchfab-3.18.5",
    "version": "2.0"
  },
  "bufferViews": [
    {
      "buffer": 0,
      "byteLength": 161232,
      "byteOffset": 0,
      "name": "floatBufferViews",
      "target": 34963
    },
    {
      "buffer": 0,
      "byteLength": 647112,
      "byteOffset": 161232,
      "byteStride": 12,
      "name": "floatBufferViews",
      "target": 34962
    }
  ],
  "buffers": [
    {
      "byteLength": 808344,
      "uri": "scene.bin"
    }
  ],
  "extensionsUsed": [
    "KHR_materials_unlit"
  ],
  "materials": [
    {
      "doubleSided": true,
      "emissiveFactor": [
        0,
        0,
        0
      ],
      "extensions": {
        "KHR_materials_unlit": {}
      },
      "name": "Black",
      "pbrMetallicRoughness": {
        "baseColorFactor": [
          0,
          0,
          0,
          1
        ],
        "metallicFactor": 0,
        "roughnessFactor": 1
      }
    },
    {
      "doubleSided": true,
      "extensions": {
        "KHR_materials_unlit": {}
      },
      "name": "Blue",
      "pbrMetallicRoughness": {
        "baseColorFactor": [
          0,
          0.78154015539999999,
          0.80000007149999997,
          1
        ],
        "metallicFactor": 0,
        "roughnessFactor": 1
      }
    }
  ],
  "meshes": [
    {
      "name": "Frame_0",
      "primitives": [
        {
          "attributes": {
            "NORMAL": 1,
            "POSITION": 0
          },
          "indices": 2,
          "material": 1,
          "mode": 4
        }
      ]
    },
    {
      "name": "Sphere_0",
      "primitives": [
        {
          "attributes": {
            "NORMAL": 4,
            "POSITION": 3
          },
          "indices": 5,
          "material": 0,
          "mode": 4
        }
      ]
    }
  ],
  "nodes": [
    {
      "children": [
        1
      ],
      "name": "RootNode (gltf orientation matrix)",
      "rotation": [
        -0.70710678118654746,
        -0,
        -0,
        0.70710678118654757
      ]
    },
    {
      "children": [
        2
      ],
      "name": "RootNode (model correction matrix)"
    },
    {
      "children": [
        3,
        5
      ],
      "name": "Root"
    },
    {
      "children": [
        4
      ],
      "name": "Frame"
    },
    {
      "mesh": 0,
      "name": "Frame_0"
    },
    {
      "children": [
        6
      ],
      "name": "Sphere"
    },
    {
      "mesh": 1,
      "name": "Sphere_0"
    }
  ],
  "scene": 0,
  "scenes": [
    {
      "name": "OSG_Scene",
      "nodes": [
        0
      ]
    }
  ]
}

